<svg width="64" height="64" viewBox="0 0 64 64" fill="none" xmlns="http://www.w3.org/2000/svg">
<g opacity="0.9" filter="url(#filter0_ii_117331_7643)">
<circle cx="32" cy="32" r="32" fill="#6E7076"/>
</g>
<path d="M32.3043 26.9865L27.8051 19.0465C27.9545 18.8944 28.1264 18.7946 28.2983 18.7275C26.9715 19.1642 26.3627 20.6541 26.3627 20.6541L18.1434 35.1556C18.0277 35.6102 17.9956 36.0207 18.0101 36.3822H26.9811L32.3043 26.9865Z" fill="#34A853"/>
<path d="M32.2998 26.9865L37.623 36.3822H46.5941C46.6085 36.0207 46.5764 35.6102 46.4607 35.1556L38.2414 20.6541C38.2414 20.6541 37.631 19.1642 36.3059 18.7275C36.4761 18.7946 36.6496 18.8944 36.799 19.0465L32.2998 26.9865Z" fill="#FBBC05"/>
<path d="M32.3063 26.9869L36.8055 19.0468C36.6561 18.8947 36.4826 18.7949 36.3124 18.7279C36.1164 18.6641 35.906 18.6216 35.6779 18.6101H35.4402H29.1725H28.9347C28.7082 18.6199 28.4962 18.6624 28.3003 18.7279C28.13 18.7949 27.9565 18.8947 27.8071 19.0468L32.3063 26.9869Z" fill="#188038"/>
<path d="M26.9804 36.3821L22.5326 44.2322C22.5326 44.2322 22.3849 44.1603 22.1841 44.0114C22.8153 44.4972 23.4289 44.6002 23.4289 44.6002H40.8972C41.861 44.6002 42.0618 44.2322 42.0618 44.2322C42.065 44.2306 42.0666 44.2289 42.0698 44.2273L37.6252 36.3821H26.9804Z" fill="#4285F4"/>
<path d="M26.9813 36.3821H18.0103C18.0552 37.4484 18.5178 38.0715 18.5178 38.0715L18.8552 38.657C18.8793 38.6913 18.8937 38.711 18.8937 38.711L19.6278 39.9997L21.2758 42.8683C21.324 42.9844 21.3802 43.0907 21.4397 43.1921C21.4621 43.2264 21.483 43.264 21.5071 43.2967C21.5135 43.3066 21.52 43.3164 21.5264 43.3262C21.7304 43.614 21.9585 43.8364 22.1866 44.0114C22.3874 44.1619 22.5351 44.2322 22.5351 44.2322L26.9813 36.3821Z" fill="#1967D2"/>
<path d="M37.6279 36.3821H46.599C46.554 37.4484 46.0914 38.0715 46.0914 38.0715L45.7541 38.657C45.73 38.6913 45.7155 38.711 45.7155 38.711L44.9815 39.9997L43.3334 42.8683C43.2852 42.9844 43.229 43.0907 43.1696 43.1921C43.1471 43.2264 43.1262 43.264 43.1021 43.2967C43.0957 43.3066 43.0893 43.3164 43.0828 43.3262C42.8788 43.614 42.6508 43.8364 42.4227 44.0114C42.2219 44.1619 42.0741 44.2322 42.0741 44.2322L37.6279 36.3821Z" fill="#EA4335"/>
<defs>
<filter id="filter0_ii_117331_7643" x="0" y="-3" width="64" height="71" filterUnits="userSpaceOnUse" color-interpolation-filters="sRGB">
<feFlood flood-opacity="0" result="BackgroundImageFix"/>
<feBlend mode="normal" in="SourceGraphic" in2="BackgroundImageFix" result="shape"/>
<feColorMatrix in="SourceAlpha" type="matrix" values="0 0 0 0 0 0 0 0 0 0 0 0 0 0 0 0 0 0 127 0" result="hardAlpha"/>
<feOffset dy="-3"/>
<feGaussianBlur stdDeviation="4"/>
<feComposite in2="hardAlpha" operator="arithmetic" k2="-1" k3="1"/>
<feColorMatrix type="matrix" values="0 0 0 0 0.891634 0 0 0 0 0.891634 0 0 0 0 0.891634 0 0 0 0.03 0"/>
<feBlend mode="normal" in2="shape" result="effect1_innerShadow_117331_7643"/>
<feColorMatrix in="SourceAlpha" type="matrix" values="0 0 0 0 0 0 0 0 0 0 0 0 0 0 0 0 0 0 127 0" result="hardAlpha"/>
<feOffset dy="4"/>
<feGaussianBlur stdDeviation="2"/>
<feComposite in2="hardAlpha" operator="arithmetic" k2="-1" k3="1"/>
<feColorMatrix type="matrix" values="0 0 0 0 0 0 0 0 0 0 0 0 0 0 0 0 0 0 0.25 0"/>
<feBlend mode="normal" in2="effect1_innerShadow_117331_7643" result="effect2_innerShadow_117331_7643"/>
</filter>
</defs>
</svg>
