<svg width="64" height="64" viewBox="0 0 64 64" fill="none" xmlns="http://www.w3.org/2000/svg">
<g opacity="0.9" filter="url(#filter0_ii_117331_7610)">
<circle cx="32" cy="32" r="32" fill="#454A56"/>
</g>
<path d="M33.75 29.5378C33.75 28.8727 34.2892 28.3335 34.9543 28.3335H48.7955C49.4606 28.3335 49.9998 28.8727 49.9998 29.5378V38.8752C49.9998 43.3625 46.3622 47.0001 41.8749 47.0001C37.3876 47.0001 33.75 43.3625 33.75 38.8752V29.5378Z" fill="url(#paint0_linear_117331_7610)"/>
<path d="M21.25 27.3012C21.25 26.3985 21.9817 25.6667 22.8844 25.6667H39.6153C40.518 25.6667 41.2498 26.3985 41.2498 27.3012V41.0002C41.2498 46.523 36.7727 51.0001 31.2499 51.0001C25.7271 51.0001 21.25 46.523 21.25 41.0002V27.3012Z" fill="url(#paint1_linear_117331_7610)"/>
<ellipse cx="43.75" cy="21.6665" rx="3.74995" ry="3.99999" fill="#34439E"/>
<ellipse cx="43.75" cy="21.6665" rx="3.74995" ry="3.99999" fill="url(#paint2_linear_117331_7610)"/>
<ellipse cx="32.4999" cy="18.9998" rx="4.99994" ry="5.33333" fill="url(#paint3_linear_117331_7610)"/>
<mask id="mask0_117331_7610" style="mask-type:alpha" maskUnits="userSpaceOnUse" x="21" y="11" width="21" height="40">
<path d="M31.2499 24.3333C34.7017 24.3333 37.4998 21.3486 37.4998 17.6667C37.4998 13.9847 34.7017 11 31.2499 11C27.7981 11 25 13.9847 25 17.6667C25 21.3486 27.7981 24.3333 31.2499 24.3333Z" fill="url(#paint4_linear_117331_7610)"/>
<path d="M22.7823 25.6666C21.936 25.6666 21.25 26.3984 21.25 27.3011V40.3333C21.25 46.2244 25.727 50.9999 31.2499 50.9999C36.7727 50.9999 41.2498 46.2244 41.2498 40.3333V27.3011C41.2498 26.3984 40.5637 25.6666 39.7175 25.6666H22.7823Z" fill="url(#paint5_linear_117331_7610)"/>
</mask>
<g mask="url(#mask0_117331_7610)">
<path d="M18.75 26.0002C18.75 24.3434 20.0931 23.0002 21.75 23.0002H31.9998C33.6567 23.0002 34.9998 24.3434 34.9998 26.0002V44.0002C34.9998 45.6571 33.6567 47.0002 31.9998 47.0002H18.75V26.0002Z" fill="black" fill-opacity="0.3"/>
</g>
<rect x="10" y="20.3335" width="22.4997" height="24" rx="2" fill="url(#paint6_linear_117331_7610)"/>
<path d="M26.2499 25.6667H16.25V28.1131H19.9936V39.0001H22.5062V28.1131H26.2499V25.6667Z" fill="white"/>
<defs>
<filter id="filter0_ii_117331_7610" x="0" y="-3" width="64" height="71" filterUnits="userSpaceOnUse" color-interpolation-filters="sRGB">
<feFlood flood-opacity="0" result="BackgroundImageFix"/>
<feBlend mode="normal" in="SourceGraphic" in2="BackgroundImageFix" result="shape"/>
<feColorMatrix in="SourceAlpha" type="matrix" values="0 0 0 0 0 0 0 0 0 0 0 0 0 0 0 0 0 0 127 0" result="hardAlpha"/>
<feOffset dy="-3"/>
<feGaussianBlur stdDeviation="4"/>
<feComposite in2="hardAlpha" operator="arithmetic" k2="-1" k3="1"/>
<feColorMatrix type="matrix" values="0 0 0 0 0.891634 0 0 0 0 0.891634 0 0 0 0 0.891634 0 0 0 0.03 0"/>
<feBlend mode="normal" in2="shape" result="effect1_innerShadow_117331_7610"/>
<feColorMatrix in="SourceAlpha" type="matrix" values="0 0 0 0 0 0 0 0 0 0 0 0 0 0 0 0 0 0 127 0" result="hardAlpha"/>
<feOffset dy="4"/>
<feGaussianBlur stdDeviation="2"/>
<feComposite in2="hardAlpha" operator="arithmetic" k2="-1" k3="1"/>
<feColorMatrix type="matrix" values="0 0 0 0 0 0 0 0 0 0 0 0 0 0 0 0 0 0 0.25 0"/>
<feBlend mode="normal" in2="effect1_innerShadow_117331_7610" result="effect2_innerShadow_117331_7610"/>
</filter>
<linearGradient id="paint0_linear_117331_7610" x1="33.75" y1="29.316" x2="50.8172" y2="39.7712" gradientUnits="userSpaceOnUse">
<stop stop-color="#364088"/>
<stop offset="1" stop-color="#6E7EE1"/>
</linearGradient>
<linearGradient id="paint1_linear_117331_7610" x1="21.25" y1="36.8719" x2="41.2498" y2="36.8719" gradientUnits="userSpaceOnUse">
<stop stop-color="#515FC4"/>
<stop offset="1" stop-color="#7084EA"/>
</linearGradient>
<linearGradient id="paint2_linear_117331_7610" x1="40" y1="18.0876" x2="47.5481" y2="23.0671" gradientUnits="userSpaceOnUse">
<stop stop-color="#364088"/>
<stop offset="1" stop-color="#6E7EE1"/>
</linearGradient>
<linearGradient id="paint3_linear_117331_7610" x1="28.9286" y1="15.1903" x2="35.8396" y2="22.7491" gradientUnits="userSpaceOnUse">
<stop stop-color="#4858AE"/>
<stop offset="1" stop-color="#4E60CE"/>
</linearGradient>
<linearGradient id="paint4_linear_117331_7610" x1="26.7856" y1="12.9048" x2="35.4244" y2="22.3533" gradientUnits="userSpaceOnUse">
<stop stop-color="#4858AE"/>
<stop offset="1" stop-color="#4E60CE"/>
</linearGradient>
<linearGradient id="paint5_linear_117331_7610" x1="26.7856" y1="12.9048" x2="35.4244" y2="22.3533" gradientUnits="userSpaceOnUse">
<stop stop-color="#4858AE"/>
<stop offset="1" stop-color="#4E60CE"/>
</linearGradient>
<linearGradient id="paint6_linear_117331_7610" x1="10" y1="32.3335" x2="32.4997" y2="32.3335" gradientUnits="userSpaceOnUse">
<stop stop-color="#2A3887"/>
<stop offset="1" stop-color="#4C56B9"/>
</linearGradient>
</defs>
</svg>
