<svg width="64" height="64" viewBox="0 0 64 64" fill="none" xmlns="http://www.w3.org/2000/svg">
<g opacity="0.9" filter="url(#filter0_ii_117351_13845)">
<circle cx="32" cy="32" r="32" fill="#6E7076"/>
</g>
<path d="M32.3043 26.9865L27.8051 19.0465C27.9545 18.8944 28.1264 18.7946 28.2983 18.7275C26.9715 19.1642 26.3627 20.6541 26.3627 20.6541L18.1434 35.1556C18.0277 35.6102 17.9956 36.0207 18.0101 36.3822H26.9811L32.3043 26.9865Z" fill="#34A853"/>
<path d="M32.2998 26.9865L37.623 36.3822H46.5941C46.6085 36.0207 46.5764 35.6102 46.4607 35.1556L38.2414 20.6541C38.2414 20.6541 37.631 19.1642 36.3059 18.7275C36.4761 18.7946 36.6496 18.8944 36.799 19.0465L32.2998 26.9865Z" fill="#FBBC05"/>
<path d="M32.3063 26.9866L36.8055 19.0465C36.6561 18.8944 36.4826 18.7947 36.3124 18.7276C36.1164 18.6638 35.906 18.6213 35.6779 18.6099H35.4402H29.1725H28.9347C28.7082 18.6197 28.4962 18.6622 28.3003 18.7276C28.13 18.7947 27.9565 18.8944 27.8071 19.0465L32.3063 26.9866Z" fill="#188038"/>
<path d="M26.9804 36.3818L22.5326 44.232C22.5326 44.232 22.3849 44.16 22.1841 44.0112C22.8153 44.4969 23.4289 44.5999 23.4289 44.5999H40.8972C41.861 44.5999 42.0618 44.232 42.0618 44.232C42.065 44.2303 42.0666 44.2287 42.0698 44.2271L37.6252 36.3818H26.9804Z" fill="#4285F4"/>
<path d="M26.9813 36.3818H18.0103C18.0552 37.4481 18.5178 38.0713 18.5178 38.0713L18.8552 38.6567C18.8793 38.6911 18.8937 38.7107 18.8937 38.7107L19.6278 39.9994L21.2758 42.868C21.324 42.9841 21.3802 43.0904 21.4397 43.1918C21.4621 43.2262 21.483 43.2638 21.5071 43.2965C21.5135 43.3063 21.52 43.3161 21.5264 43.3259C21.7304 43.6138 21.9585 43.8362 22.1866 44.0112C22.3874 44.1616 22.5351 44.232 22.5351 44.232L26.9813 36.3818Z" fill="#1967D2"/>
<path d="M37.6279 36.3818H46.599C46.554 37.4481 46.0914 38.0713 46.0914 38.0713L45.7541 38.6567C45.73 38.6911 45.7155 38.7107 45.7155 38.7107L44.9815 39.9994L43.3334 42.868C43.2852 42.9841 43.229 43.0904 43.1696 43.1918C43.1471 43.2262 43.1262 43.2638 43.1021 43.2965C43.0957 43.3063 43.0893 43.3161 43.0828 43.3259C42.8788 43.6138 42.6508 43.8362 42.4227 44.0112C42.2219 44.1616 42.0741 44.232 42.0741 44.232L37.6279 36.3818Z" fill="#EA4335"/>
<defs>
<filter id="filter0_ii_117351_13845" x="0" y="-3" width="64" height="71" filterUnits="userSpaceOnUse" color-interpolation-filters="sRGB">
<feFlood flood-opacity="0" result="BackgroundImageFix"/>
<feBlend mode="normal" in="SourceGraphic" in2="BackgroundImageFix" result="shape"/>
<feColorMatrix in="SourceAlpha" type="matrix" values="0 0 0 0 0 0 0 0 0 0 0 0 0 0 0 0 0 0 127 0" result="hardAlpha"/>
<feOffset dy="-3"/>
<feGaussianBlur stdDeviation="4"/>
<feComposite in2="hardAlpha" operator="arithmetic" k2="-1" k3="1"/>
<feColorMatrix type="matrix" values="0 0 0 0 0.891634 0 0 0 0 0.891634 0 0 0 0 0.891634 0 0 0 0.03 0"/>
<feBlend mode="normal" in2="shape" result="effect1_innerShadow_117351_13845"/>
<feColorMatrix in="SourceAlpha" type="matrix" values="0 0 0 0 0 0 0 0 0 0 0 0 0 0 0 0 0 0 127 0" result="hardAlpha"/>
<feOffset dy="4"/>
<feGaussianBlur stdDeviation="2"/>
<feComposite in2="hardAlpha" operator="arithmetic" k2="-1" k3="1"/>
<feColorMatrix type="matrix" values="0 0 0 0 0 0 0 0 0 0 0 0 0 0 0 0 0 0 0.25 0"/>
<feBlend mode="normal" in2="effect1_innerShadow_117351_13845" result="effect2_innerShadow_117351_13845"/>
</filter>
</defs>
</svg>
