<svg width="121" height="24" viewBox="0 0 121 24" fill="none" xmlns="http://www.w3.org/2000/svg">
<g clip-path="url(#clip0_117430_1426)">
<path d="M21.6722 11.0765C22.9466 11.0765 23.9797 10.0434 23.9797 8.76901C23.9797 7.49462 22.9465 6.46152 21.6721 6.46152C20.3976 6.46152 19.3644 7.49471 19.3644 8.76921V11.0765H21.6722ZM15.2105 11.0765C16.485 11.0765 17.5182 10.0433 17.5182 8.76881V2.30768C17.5182 1.03318 16.485 0 15.2105 0C13.936 0 12.9028 1.03319 12.9028 2.30769V8.76881C12.9028 10.0433 13.936 11.0765 15.2105 11.0765Z" fill="#2EB67D"/>
<path d="M2.28724 12.923C1.01285 12.923 -0.0202522 13.9561 -0.0202522 15.2305C-0.0202522 16.5049 1.01294 17.538 2.28733 17.538C3.56183 17.538 4.59512 16.5048 4.59512 15.2303V12.923H2.28724ZM8.74895 12.923C7.47445 12.923 6.44127 13.9562 6.44127 15.2307V21.6918C6.44127 22.9663 7.47445 23.9995 8.74895 23.9995C10.0235 23.9995 11.0566 22.9663 11.0566 21.6918V15.2307C11.0566 13.9562 10.0235 12.923 8.74895 12.923Z" fill="#E01E5A"/>
<path d="M12.903 21.6923C12.903 22.9666 13.9361 23.9997 15.2105 23.9997C16.4849 23.9997 17.518 22.9665 17.518 21.6922C17.518 20.4177 16.4848 19.3844 15.2103 19.3844L12.903 19.3844L12.903 21.6923ZM12.903 15.2305C12.903 16.505 13.9362 17.5382 15.2107 17.5382L21.6718 17.5382C22.9463 17.5382 23.9795 16.505 23.9795 15.2305C23.9795 13.956 22.9463 12.9229 21.6718 12.9229L15.2107 12.9229C13.9362 12.9229 12.903 13.956 12.903 15.2305Z" fill="#ECB22E"/>
<path d="M11.0565 2.30726C11.0565 1.03287 10.0234 -0.000232258 8.74899 -0.000232313C7.4746 -0.000232369 6.4415 1.03296 6.4415 2.30735C6.4415 3.58185 7.47469 4.61514 8.74919 4.61514L11.0565 4.61514L11.0565 2.30726ZM11.0565 8.76897C11.0565 7.49447 10.0233 6.46129 8.74879 6.46129L2.28766 6.46129C1.01316 6.46129 -0.0200194 7.49447 -0.0200194 8.76897C-0.0200195 10.0435 1.01317 11.0767 2.28767 11.0767L8.74879 11.0767C10.0233 11.0767 11.0565 10.0435 11.0565 8.76897Z" fill="#36C5F0"/>
</g>
<defs>
<clipPath id="clip0_117430_1426">
<rect width="121" height="24" fill="white"/>
</clipPath>
</defs>
</svg>
