<svg width="100" height="24" viewBox="0 0 100 24" fill="none" xmlns="http://www.w3.org/2000/svg">
<g clip-path="url(#clip0_115118_989)">
<path d="M30.5076 16.4711H37.5382V14.3638H33.0064V6.42627H30.5076V16.4711Z" fill="white"/>
<path d="M41.7035 15.0663C40.7011 15.0663 40.1788 14.1953 40.1788 12.8888C40.1788 11.5822 40.7011 10.6972 41.7035 10.6972C42.7058 10.6972 43.2423 11.5822 43.2423 12.8888C43.2423 14.1953 42.7058 15.0663 41.7035 15.0663ZM41.7176 16.696C44.047 16.696 45.5717 15.0523 45.5717 12.8888C45.5717 10.7253 44.047 9.08154 41.7176 9.08154C39.4023 9.08154 37.8494 10.7253 37.8494 12.8888C37.8494 15.0523 39.4023 16.696 41.7176 16.696Z" fill="white"/>
<path d="M49.6037 18.9577C50.6766 18.9577 51.6225 18.7189 52.2578 18.1569C52.8366 17.6371 53.2178 16.8504 53.2178 15.7687V9.27811H51.0154V10.0508H50.9872C50.5636 9.4467 49.9142 9.06738 48.9542 9.06738C47.1613 9.06738 45.9189 10.5566 45.9189 12.6639C45.9189 14.8695 47.4295 16.0777 49.0531 16.0777C49.9284 16.0777 50.4789 15.7265 50.9025 15.2488H50.9589V15.9653C50.9589 16.8364 50.5495 17.3421 49.5754 17.3421C48.8131 17.3421 48.4319 17.019 48.3048 16.6397H46.0742C46.3001 18.1429 47.6131 18.9577 49.6037 18.9577ZM49.5895 14.3778C48.7284 14.3778 48.1637 13.6754 48.1637 12.5936C48.1637 11.4978 48.7284 10.7954 49.5895 10.7954C50.5495 10.7954 51.0578 11.6102 51.0578 12.5796C51.0578 13.5911 50.5919 14.3778 49.5895 14.3778Z" fill="white"/>
<path d="M57.7467 15.0663C56.7443 15.0663 56.222 14.1953 56.222 12.8888C56.222 11.5822 56.7443 10.6972 57.7467 10.6972C58.749 10.6972 59.2855 11.5822 59.2855 12.8888C59.2855 14.1953 58.749 15.0663 57.7467 15.0663ZM57.7608 16.696C60.0902 16.696 61.6149 15.0523 61.6149 12.8888C61.6149 10.7253 60.0902 9.08154 57.7608 9.08154C55.4455 9.08154 53.8926 10.7253 53.8926 12.8888C53.8926 15.0523 55.4455 16.696 57.7608 16.696Z" fill="white"/>
<path d="M62.2871 16.4711H64.5883V9.27817H62.2871V16.4711ZM62.2871 8.28071H64.5883V6.42627H62.2871V8.28071Z" fill="white"/>
<path d="M65.5869 18.8453H67.8881V15.7265H67.9163C68.3681 16.3306 69.0316 16.6959 69.9634 16.6959C71.8551 16.6959 73.1116 15.2067 73.1116 12.8746C73.1116 10.7111 71.9399 9.06738 70.0199 9.06738C69.0316 9.06738 68.3257 9.50289 67.8316 10.1491H67.7893V9.27811H65.5869V18.8453ZM69.3704 14.9257C68.3822 14.9257 67.8175 14.1249 67.8175 12.9589C67.8175 11.7928 68.3257 10.9078 69.3281 10.9078C70.3163 10.9078 70.7822 11.7226 70.7822 12.9589C70.7822 14.1811 70.2457 14.9257 69.3704 14.9257Z" fill="white"/>
<path d="M76.8583 16.6959C78.7501 16.6959 80.1477 15.881 80.1477 14.3076C80.1477 12.4672 78.6513 12.1441 77.3807 11.9333C76.463 11.7647 75.6442 11.6945 75.6442 11.1887C75.6442 10.7392 76.0818 10.5285 76.6465 10.5285C77.2818 10.5285 77.7195 10.7251 77.8042 11.3714H79.9218C79.8089 9.95246 78.7077 9.06738 76.6607 9.06738C74.9524 9.06738 73.5407 9.85411 73.5407 11.3714C73.5407 13.0572 74.8818 13.3944 76.1383 13.6051C77.0983 13.7737 77.9736 13.844 77.9736 14.4902C77.9736 14.9538 77.536 15.2067 76.8442 15.2067C76.0818 15.2067 75.6018 14.8555 75.5171 14.139H73.343C73.4136 15.7265 74.7407 16.6959 76.8583 16.6959Z" fill="white"/>
<path d="M83.2726 16.6815C84.275 16.6815 84.9103 16.2882 85.4326 15.5857H85.475V16.4708H87.6773V9.27783H85.3761V13.2958C85.3761 14.1528 84.8962 14.7428 84.1056 14.7428C83.3714 14.7428 83.0185 14.3073 83.0185 13.5206V9.27783H80.7314V13.9982C80.7314 15.5998 81.6067 16.6815 83.2726 16.6815Z" fill="white"/>
<path d="M88.6777 16.4711H90.9789V12.4391C90.9789 11.5821 91.4024 10.978 92.1224 10.978C92.8142 10.978 93.1389 11.4276 93.1389 12.2003V16.4711H95.4401V12.4391C95.4401 11.5821 95.8495 10.978 96.5836 10.978C97.2754 10.978 97.6001 11.4276 97.6001 12.2003V16.4711H99.9013V11.7928C99.9013 10.1772 99.0824 9.06738 97.4448 9.06738C96.513 9.06738 95.7366 9.46075 95.1718 10.3318H95.1436C94.7766 9.55909 94.0566 9.06738 93.1107 9.06738C92.066 9.06738 91.3742 9.55909 90.9224 10.3037H90.8801V9.27811H88.6777V16.4711Z" fill="white"/>
<path fill-rule="evenodd" clip-rule="evenodd" d="M12.169 23.4957C18.6665 23.4957 23.9337 18.2541 23.9337 11.7884C23.9337 5.3226 18.6665 0.0810547 12.169 0.0810547C5.67152 0.0810547 0.404297 5.3226 0.404297 11.7884C0.404297 18.2541 5.67152 23.4957 12.169 23.4957ZM15.8392 5.53481C16.0178 4.90333 15.402 4.52991 14.8396 4.92864L6.98848 10.4945C6.37854 10.9269 6.47448 11.7884 7.1326 11.7884H9.20001V11.7724H13.2293L9.94619 12.9252L8.49884 18.0419C8.32019 18.6734 8.93595 19.0468 9.49842 18.6481L17.3495 13.0823C17.9595 12.6499 17.8635 11.7884 17.2054 11.7884H14.0702L15.8392 5.53481Z" fill="white"/>
</g>
<defs>
<clipPath id="clip0_115118_989">
<rect width="100" height="24" fill="white"/>
</clipPath>
</defs>
</svg>
