<svg width="121" height="24" viewBox="0 0 121 24" fill="none" xmlns="http://www.w3.org/2000/svg">
<path d="M12.0041 8.03775L8.22844 1.37456C8.3538 1.24692 8.49803 1.1632 8.64227 1.10693C7.52885 1.47337 7.01797 2.72367 7.01797 2.72367L0.12046 14.8931C0.0234066 15.2746 -0.00355496 15.6191 0.00857669 15.9224H7.53694L12.0041 8.03775Z" fill="#34A853"/>
<path d="M12 8.03775L16.4671 15.9224H23.9955C24.0076 15.6191 23.9807 15.2746 23.8836 14.8931L16.9861 2.72367C16.9861 2.72367 16.4739 1.47337 15.3618 1.10693C15.5047 1.1632 15.6503 1.24692 15.7756 1.37456L12 8.03775Z" fill="#FBBC05"/>
<path d="M12.0056 8.03793L15.7813 1.37474C15.6559 1.24711 15.5103 1.16339 15.3674 1.10712C15.203 1.05359 15.0264 1.01791 14.835 1.0083H14.6355H9.37575H9.17625C8.98618 1.01654 8.80826 1.05222 8.64381 1.10712C8.50092 1.16339 8.35534 1.24711 8.22998 1.37474L12.0056 8.03793Z" fill="#188038"/>
<path d="M7.53624 15.9224L3.80374 22.5101C3.80374 22.5101 3.67973 22.4497 3.51123 22.3248C4.04098 22.7324 4.5559 22.8189 4.5559 22.8189H19.215C20.0238 22.8189 20.1922 22.5101 20.1922 22.5101C20.1949 22.5087 20.1963 22.5073 20.199 22.506L16.4692 15.9224H7.53624Z" fill="#4285F4"/>
<path d="M7.53715 15.9224H0.00878906C0.046532 16.8172 0.434745 17.3401 0.434745 17.3401L0.717818 17.8314C0.738037 17.8602 0.750167 17.8767 0.750167 17.8767L1.36619 18.9582L2.74919 21.3655C2.78963 21.4629 2.83681 21.5521 2.88669 21.6372C2.90556 21.666 2.92308 21.6976 2.9433 21.725C2.94869 21.7333 2.95408 21.7415 2.95947 21.7497C3.13066 21.9913 3.32208 22.1779 3.51349 22.3248C3.68198 22.4511 3.806 22.5101 3.806 22.5101L7.53715 15.9224Z" fill="#1967D2"/>
<path d="M16.4717 15.9224H24C23.9623 16.8172 23.5741 17.3401 23.5741 17.3401L23.291 17.8314C23.2708 17.8602 23.2587 17.8767 23.2587 17.8767L22.6426 18.9582L21.2596 21.3655C21.2192 21.4629 21.172 21.5521 21.1221 21.6372C21.1033 21.666 21.0857 21.6976 21.0655 21.725C21.0601 21.7333 21.0547 21.7415 21.0493 21.7497C20.8782 21.9913 20.6867 22.1779 20.4953 22.3248C20.3268 22.4511 20.2028 22.5101 20.2028 22.5101L16.4717 15.9224Z" fill="#EA4335"/>
</svg>
