<svg width="121" height="24" viewBox="0 0 121 24" fill="none" xmlns="http://www.w3.org/2000/svg">
<path d="M12.0038 8.03763L8.2282 1.37444C8.35356 1.2468 8.49779 1.16308 8.64202 1.10681C7.52861 1.47325 7.01773 2.72354 7.01773 2.72354L0.120216 14.893C0.0231624 15.2745 -0.0037991 15.619 0.00833255 15.9223H7.53669L12.0038 8.03763Z" fill="#34A853"/>
<path d="M12 8.03763L16.4671 15.9223H23.9955C24.0076 15.619 23.9807 15.2745 23.8836 14.893L16.9861 2.72354C16.9861 2.72354 16.4739 1.47325 15.3618 1.10681C15.5047 1.16308 15.6503 1.2468 15.7756 1.37444L12 8.03763Z" fill="#FBBC05"/>
<path d="M12.0059 8.03793L15.7815 1.37474C15.6561 1.24711 15.5106 1.16339 15.3677 1.10712C15.2032 1.05359 15.0266 1.01791 14.8352 1.0083H14.6357H9.37599H9.17649C8.98643 1.01654 8.8085 1.05222 8.64405 1.10712C8.50117 1.16339 8.35558 1.24711 8.23022 1.37474L12.0059 8.03793Z" fill="#188038"/>
<path d="M7.53649 15.9222L3.80398 22.5099C3.80398 22.5099 3.67997 22.4496 3.51147 22.3247C4.04122 22.7323 4.55614 22.8187 4.55614 22.8187H19.2152C20.024 22.8187 20.1925 22.5099 20.1925 22.5099C20.1952 22.5086 20.1965 22.5072 20.1992 22.5058L16.4694 15.9222H7.53649Z" fill="#4285F4"/>
<path d="M7.53691 15.9222H0.00854492C0.0462878 16.8171 0.434501 17.34 0.434501 17.34L0.717574 17.8313C0.737793 17.8601 0.749923 17.8766 0.749923 17.8766L1.36594 18.9581L2.74895 21.3653C2.78939 21.4628 2.83657 21.552 2.88644 21.6371C2.90531 21.6659 2.92283 21.6975 2.94305 21.7249C2.94845 21.7331 2.95384 21.7414 2.95923 21.7496C3.13042 21.9912 3.32183 22.1778 3.51324 22.3247C3.68174 22.4509 3.80575 22.5099 3.80575 22.5099L7.53691 15.9222Z" fill="#1967D2"/>
<path d="M16.4717 15.9222H24C23.9623 16.8171 23.5741 17.34 23.5741 17.34L23.291 17.8313C23.2708 17.8601 23.2587 17.8766 23.2587 17.8766L22.6426 18.9581L21.2596 21.3653C21.2192 21.4628 21.172 21.552 21.1221 21.6371C21.1033 21.6659 21.0857 21.6975 21.0655 21.7249C21.0601 21.7331 21.0547 21.7414 21.0493 21.7496C20.8782 21.9912 20.6867 22.1778 20.4953 22.3247C20.3268 22.4509 20.2028 22.5099 20.2028 22.5099L16.4717 15.9222Z" fill="#EA4335"/>
</svg>
