<svg width="121" height="24" viewBox="0 0 121 24" fill="none" xmlns="http://www.w3.org/2000/svg">
<g clip-path="url(#clip0_115118_908)">
<path d="M21.6727 11.0766C22.9471 11.0766 23.9802 10.0435 23.9802 8.76913C23.9802 7.49474 22.947 6.46164 21.6726 6.46164C20.3981 6.46164 19.3648 7.49483 19.3648 8.76933V11.0766H21.6727ZM15.211 11.0766C16.4855 11.0766 17.5187 10.0434 17.5187 8.76893V2.30781C17.5187 1.03331 16.4855 0.00012207 15.211 0.00012207C13.9365 0.00012207 12.9033 1.03331 12.9033 2.30781V8.76894C12.9033 10.0434 13.9365 11.0766 15.211 11.0766Z" fill="#2EB67D"/>
<path d="M2.28748 12.9233C1.01309 12.9233 -0.0200081 13.9564 -0.0200081 15.2307C-0.0200081 16.5051 1.01319 17.5382 2.28758 17.5382C3.56208 17.5382 4.59536 16.505 4.59536 15.2305V12.9233H2.28748ZM8.7492 12.9233C7.4747 12.9233 6.44151 13.9564 6.44151 15.2309V21.6921C6.44151 22.9666 7.4747 23.9998 8.7492 23.9998C10.0237 23.9998 11.0569 22.9666 11.0569 21.6921V15.2309C11.0569 13.9564 10.0237 12.9233 8.7492 12.9233Z" fill="#E01E5A"/>
<path d="M12.9035 21.6924C12.9035 22.9668 13.9366 23.9999 15.211 23.9999C16.4854 23.9999 17.5185 22.9667 17.5185 21.6923C17.5185 20.4178 16.4853 19.3845 15.2108 19.3845L12.9035 19.3845L12.9035 21.6924ZM12.9035 15.2307C12.9035 16.5052 13.9367 17.5383 15.2112 17.5383L21.6723 17.5383C22.9468 17.5383 23.98 16.5052 23.98 15.2307C23.98 13.9562 22.9468 12.923 21.6723 12.923L15.2112 12.923C13.9367 12.923 12.9035 13.9562 12.9035 15.2307Z" fill="#ECB22E"/>
<path d="M11.0567 2.3075C11.0567 1.03311 10.0236 1.18831e-05 8.74923 1.18274e-05C7.47484 1.17717e-05 6.44175 1.03321 6.44175 2.3076C6.44175 3.5821 7.47493 4.61538 8.74943 4.61538L11.0567 4.61538L11.0567 2.3075ZM11.0567 8.76922C11.0567 7.49472 10.0235 6.46153 8.74904 6.46153L2.28791 6.46153C1.01341 6.46153 -0.0197752 7.49472 -0.0197753 8.76922C-0.0197753 10.0437 1.01341 11.0769 2.28791 11.0769L8.74904 11.0769C10.0235 11.0769 11.0567 10.0437 11.0567 8.76922Z" fill="#36C5F0"/>
</g>
<defs>
<clipPath id="clip0_115118_908">
<rect width="121" height="24" fill="white"/>
</clipPath>
</defs>
</svg>
