<svg width="121" height="24" viewBox="0 0 121 24" fill="none" xmlns="http://www.w3.org/2000/svg">
<g clip-path="url(#clip0_115118_1008)">
<path fill-rule="evenodd" clip-rule="evenodd" d="M15.3081 7.01118C14.323 6.3519 13.1649 6 11.9802 6V0C14.3496 0 16.6659 0.703788 18.636 2.02237C20.6062 3.34094 22.1417 5.21509 23.0485 7.40778C23.9552 9.60048 24.1925 12.0133 23.7302 14.3411C23.2679 16.6688 22.1269 18.8071 20.4515 20.4853C18.776 22.1635 16.6413 23.3064 14.3174 23.7694C11.9935 24.2324 9.58464 23.9948 7.39556 23.0866C5.20647 22.1783 3.33542 20.6402 2.01903 18.6668C0.702627 16.6934 0 14.3734 0 12H5.9901C5.9901 13.1867 6.34142 14.3467 6.99961 15.3334C7.6578 16.3201 8.59334 17.0891 9.68791 17.5433C10.7824 17.9974 11.9868 18.1162 13.1488 17.8847C14.3108 17.6532 15.3781 17.0818 16.2159 16.2427C17.0536 15.4035 17.6241 14.3344 17.8552 13.1705C18.0863 12.0067 17.9677 10.8002 17.5143 9.70392C17.0609 8.60754 16.2932 7.67046 15.3081 7.01118Z" fill="white"/>
<path fill-rule="evenodd" clip-rule="evenodd" d="M5.99009 3.17096e-06C5.99009 0.787934 5.83516 1.56815 5.53413 2.29611C5.2331 3.02406 4.79187 3.68549 4.23564 4.24264C3.67941 4.7998 3.01907 5.24175 2.29231 5.54328C1.56556 5.84481 0.786628 6 2.61833e-07 6L0 12C1.57326 12 3.13112 11.6896 4.58463 11.0866C6.03814 10.4835 7.35883 9.59958 8.47125 8.48526C9.58373 7.371 10.4662 6.04812 11.0683 4.5922C11.6703 3.13629 11.9802 1.57586 11.9802 0L5.99009 3.17096e-06Z" fill="white"/>
<path d="M75.2482 8.67188H72.3418V17.9193H75.2482V8.67188Z" fill="white"/>
<path d="M72.6638 6.94016C72.9675 7.2446 73.3473 7.39682 73.8032 7.39682C74.259 7.39682 74.6328 7.2446 74.9239 6.94016C75.2156 6.62306 75.3612 6.24248 75.3612 5.79851C75.3612 5.34186 75.2156 4.96129 74.9239 4.65686C74.6328 4.35241 74.259 4.2002 73.8032 4.2002C73.3473 4.2002 72.9675 4.35241 72.6638 4.65686C72.3721 4.96129 72.2266 5.34186 72.2266 5.79851C72.2266 6.24248 72.3721 6.62306 72.6638 6.94016Z" fill="white"/>
<path d="M30.6428 17.9188V4.48535H33.6252V15.293H39.5711V17.9188H30.6428Z" fill="white"/>
<path fill-rule="evenodd" clip-rule="evenodd" d="M44.9416 18.1279C43.9918 18.1279 43.1307 17.9186 42.3581 17.5C41.5983 17.0687 40.9968 16.4852 40.5535 15.7495C40.1103 15.0137 39.8887 14.1892 39.8887 13.2759C39.8887 12.3626 40.1103 11.5444 40.5535 10.8214C40.9968 10.0983 41.5983 9.52745 42.3581 9.10889C43.118 8.67755 43.9792 8.46191 44.9416 8.46191C45.9041 8.46191 46.7652 8.67125 47.5251 9.08981C48.2849 9.50843 48.8865 10.0856 49.3297 10.8214C49.773 11.5444 49.9946 12.3626 49.9946 13.2759C49.9946 14.1892 49.773 15.0137 49.3297 15.7495C48.8865 16.4852 48.2849 17.0687 47.5251 17.5C46.7652 17.9186 45.9041 18.1279 44.9416 18.1279ZM44.9416 15.4831C45.3595 15.4831 45.7268 15.3943 46.0434 15.2167C46.36 15.0265 46.6006 14.7664 46.7652 14.4366C46.9426 14.0941 47.0312 13.7072 47.0312 13.2759C47.0312 12.8446 46.9426 12.4704 46.7652 12.1533C46.5879 11.8235 46.341 11.5698 46.0244 11.3922C45.7204 11.2019 45.3595 11.1068 44.9416 11.1068C44.5364 11.1068 44.1755 11.2019 43.8588 11.3922C43.5423 11.5698 43.2953 11.8235 43.118 12.1533C42.9407 12.4831 42.8521 12.8636 42.8521 13.2949C42.8521 13.7135 42.9407 14.0941 43.118 14.4366C43.2953 14.7664 43.5423 15.0265 43.8588 15.2167C44.1755 15.3943 44.5364 15.4831 44.9416 15.4831Z" fill="white"/>
<path fill-rule="evenodd" clip-rule="evenodd" d="M52.2977 21.5344C53.0702 21.8895 53.963 22.0671 54.9762 22.0671C55.9639 22.0671 56.8441 21.8705 57.6166 21.4773C58.3891 21.084 58.997 20.5386 59.4402 19.8409C59.8834 19.1433 60.1054 18.3187 60.1054 17.3673V8.67177H57.2556V9.29307C57.0437 9.11439 56.803 8.96439 56.5338 8.84301C56.0399 8.60199 55.4763 8.48145 54.8432 8.48145C53.9947 8.48145 53.2411 8.68443 52.5826 9.09033C51.924 9.48357 51.4049 10.029 51.0249 10.7267C50.645 11.4117 50.4551 12.1855 50.4551 13.0481C50.4551 13.898 50.645 14.6718 51.0249 15.3694C51.4049 16.0671 51.924 16.6189 52.5826 17.0248C53.2411 17.4307 53.9947 17.6337 54.8432 17.6337C55.4637 17.6337 56.0273 17.5132 56.5338 17.2722C56.7792 17.1555 57.0008 17.0179 57.1987 16.8594V17.4435C57.1987 18.0904 56.9897 18.5914 56.5718 18.9466C56.1666 19.3018 55.603 19.4794 54.8812 19.4794C54.2986 19.4794 53.7984 19.3779 53.3805 19.1749C52.9752 18.972 52.6079 18.6739 52.2786 18.2806L50.4931 20.0692C50.9363 20.7035 51.5379 21.1919 52.2977 21.5344ZM56.4388 14.7796C56.1475 14.9572 55.7993 15.046 55.394 15.046C54.9888 15.046 54.6342 14.9572 54.3303 14.7796C54.039 14.602 53.811 14.361 53.6464 14.0565C53.4818 13.7394 53.3995 13.4032 53.3995 13.0481C53.3995 12.6675 53.4818 12.325 53.6464 12.0206C53.811 11.7162 54.0453 11.4751 54.3492 11.2975C54.6532 11.1199 55.0014 11.0311 55.394 11.0311C55.7993 11.0311 56.1475 11.1199 56.4388 11.2975C56.7428 11.4751 56.9707 11.7162 57.1227 12.0206C57.2873 12.325 57.3696 12.6675 57.3696 13.0481C57.3696 13.4286 57.2873 13.7711 57.1227 14.0755C56.9707 14.3673 56.7428 14.602 56.4388 14.7796Z" fill="white"/>
<path fill-rule="evenodd" clip-rule="evenodd" d="M66.2193 18.1279C65.2692 18.1279 64.4079 17.9186 63.6357 17.5C62.8756 17.0687 62.2742 16.4852 61.8309 15.7495C61.3876 15.0137 61.166 14.1892 61.166 13.2759C61.166 12.3626 61.3876 11.5444 61.8309 10.8214C62.2742 10.0983 62.8756 9.52745 63.6357 9.10889C64.3953 8.67755 65.2567 8.46191 66.2193 8.46191C67.1813 8.46191 68.0426 8.67125 68.8022 9.08981C69.5623 9.50843 70.1637 10.0856 70.607 10.8214C71.0503 11.5444 71.2719 12.3626 71.2719 13.2759C71.2719 14.1892 71.0503 15.0137 70.607 15.7495C70.1637 16.4852 69.5623 17.0687 68.8022 17.5C68.0426 17.9186 67.1813 18.1279 66.2193 18.1279ZM66.2193 15.4831C66.6368 15.4831 67.004 15.3943 67.3208 15.2167C67.6371 15.0265 67.8779 14.7664 68.0427 14.4366C68.22 14.0941 68.3086 13.7072 68.3086 13.2759C68.3086 12.8446 68.22 12.4704 68.0427 12.1533C67.8653 11.8235 67.6186 11.5698 67.3017 11.3922C66.998 11.2019 66.6368 11.1068 66.2193 11.1068C65.8137 11.1068 65.4525 11.2019 65.1363 11.3922C64.8194 11.5698 64.5726 11.8235 64.3953 12.1533C64.218 12.4831 64.1293 12.8636 64.1293 13.2949C64.1293 13.7135 64.218 14.0941 64.3953 14.4366C64.5726 14.7664 64.8194 15.0265 65.1363 15.2167C65.4525 15.3943 65.8137 15.4831 66.2193 15.4831Z" fill="white"/>
<path fill-rule="evenodd" clip-rule="evenodd" d="M82.2327 18.1094C81.6127 18.1094 81.0424 17.9889 80.5231 17.7479C80.25 17.6211 80.0032 17.4696 79.7827 17.2936V21.8198H76.9141V8.67177H79.8205V9.30999C80.0313 9.13725 80.2655 8.98791 80.5231 8.86203C81.0424 8.60829 81.6127 8.48145 82.2327 8.48145C83.1066 8.48145 83.8793 8.69079 84.5502 9.10941C85.2343 9.52797 85.7662 10.0988 86.146 10.8219C86.539 11.5449 86.7348 12.3694 86.7348 13.2954C86.7348 14.2215 86.539 15.046 86.146 15.769C85.7662 16.4921 85.2343 17.0629 84.5502 17.4815C83.8793 17.9001 83.1066 18.1094 82.2327 18.1094ZM81.7014 15.4836C82.1189 15.4836 82.4801 15.3885 82.7838 15.1982C83.1006 15.0079 83.3474 14.7478 83.5247 14.4181C83.702 14.0883 83.7907 13.714 83.7907 13.2954C83.7907 12.8641 83.702 12.4836 83.5247 12.1538C83.3474 11.824 83.1006 11.5703 82.7838 11.3927C82.4801 11.2024 82.1255 11.1073 81.7199 11.1073C81.315 11.1073 80.9538 11.2024 80.6375 11.3927C80.3332 11.5703 80.093 11.824 79.9157 12.1538C79.7384 12.4836 79.6497 12.8641 79.6497 13.2954C79.6497 13.714 79.7318 14.0883 79.8965 14.4181C80.0738 14.7478 80.3206 15.0079 80.6375 15.1982C80.9538 15.3885 81.3084 15.4836 81.7014 15.4836Z" fill="white"/>
<path d="M89.5793 17.9381C90.1112 18.0776 90.6491 18.1474 91.1936 18.1474C92.3461 18.1474 93.2578 17.881 93.9293 17.3482C94.6127 16.8155 94.9548 16.0988 94.9548 15.1981C94.9548 14.6146 94.8476 14.1452 94.6319 13.7901C94.4169 13.4222 94.1383 13.1305 93.7963 12.9148C93.4543 12.6992 93.093 12.5279 92.7133 12.401C92.3335 12.2742 91.9723 12.1664 91.6309 12.0776C91.2888 11.9888 91.0103 11.8873 90.7946 11.7731C90.5796 11.659 90.4718 11.5067 90.4718 11.3165C90.4718 11.1389 90.5544 11.0057 90.7186 10.9169C90.8833 10.8154 91.1301 10.7647 91.4595 10.7647C91.8016 10.7647 92.1496 10.8344 92.5042 10.974C92.8714 11.1135 93.2009 11.3546 93.492 11.6971L95.1447 10.0226C94.7272 9.48983 94.1826 9.09023 93.5112 8.82389C92.8528 8.54483 92.131 8.40527 91.3457 8.40527C90.5988 8.40527 89.9465 8.53211 89.3894 8.78579C88.8317 9.03953 88.401 9.38837 88.0973 9.83231C87.7936 10.2636 87.6415 10.7774 87.6415 11.3736C87.6415 11.9317 87.7493 12.3947 87.9643 12.7626C88.1794 13.1177 88.4585 13.3969 88.7999 13.5998C89.142 13.8028 89.5032 13.9613 89.883 14.0755C90.2627 14.1896 90.6239 14.2975 90.966 14.399C91.3074 14.4878 91.5865 14.5956 91.8016 14.7224C92.0298 14.8366 92.1436 15.0079 92.1436 15.2362C92.1436 15.4138 92.0484 15.5533 91.8585 15.6548C91.6812 15.7562 91.4218 15.807 91.0798 15.807C90.5856 15.807 90.1298 15.7182 89.7122 15.5406C89.2941 15.3503 88.9329 15.0903 88.6292 14.7605L86.9766 16.4349C87.2934 16.7774 87.6732 17.0819 88.1165 17.3482C88.5723 17.6019 89.0599 17.7985 89.5793 17.9381Z" fill="white"/>
<path d="M100.255 18.1285C99.4065 18.1285 98.6529 17.9573 97.9946 17.6148C97.3483 17.2596 96.8421 16.7776 96.4749 16.1687C96.1071 15.5472 95.9238 14.8368 95.9238 14.0376V8.67188H98.8302V13.9996C98.8302 14.3167 98.8805 14.5894 98.9824 14.8177C99.0962 15.0461 99.2609 15.2237 99.476 15.3505C99.6916 15.4774 99.951 15.5408 100.255 15.5408C100.685 15.5408 101.027 15.4076 101.281 15.1412C101.534 14.8621 101.661 14.4816 101.661 13.9996V8.67188H104.567V14.0186C104.567 14.8305 104.384 15.5472 104.016 16.1687C103.649 16.7776 103.142 17.2596 102.496 17.6148C101.85 17.9573 101.103 18.1285 100.255 18.1285Z" fill="white"/>
<path d="M108.92 8.67177H106.014V17.9191H108.92V12.5153C108.92 12.1982 108.984 11.9318 109.11 11.7162C109.25 11.5005 109.433 11.3356 109.661 11.2215C109.889 11.0946 110.149 11.0311 110.44 11.0311C110.858 11.0311 111.206 11.1643 111.484 11.4307C111.776 11.6844 111.922 12.046 111.922 12.5153V17.9191H114.828V12.5153C114.828 12.1982 114.892 11.9318 115.018 11.7162C115.158 11.5005 115.341 11.3356 115.569 11.2215C115.797 11.0946 116.057 11.0311 116.348 11.0311C116.766 11.0311 117.114 11.1643 117.392 11.4307C117.684 11.6844 117.829 12.046 117.829 12.5153V17.9191H120.736V12.1918C120.736 11.4181 120.571 10.7584 120.242 10.213C119.925 9.65481 119.488 9.22989 118.931 8.93817C118.387 8.63367 117.76 8.48145 117.05 8.48145C116.329 8.48145 115.676 8.64003 115.094 8.95719C114.715 9.15921 114.385 9.41997 114.102 9.73941C113.837 9.40527 113.516 9.13185 113.137 8.91909C112.631 8.62737 112.055 8.48145 111.409 8.48145C110.725 8.48145 110.111 8.62737 109.566 8.91909C109.329 9.04047 109.114 9.18585 108.92 9.35523V8.67177Z" fill="white"/>
</g>
<defs>
<clipPath id="clip0_115118_1008">
<rect width="121" height="24" fill="white"/>
</clipPath>
</defs>
</svg>
