<svg width="411" height="584" viewBox="0 0 411 584" fill="none" xmlns="http://www.w3.org/2000/svg">
<path d="M0 31C0 13.8792 13.8792 0 31 0H147C164.121 0 178 13.8792 178 31V39.2996C178 54.9362 190.676 67.6122 206.313 67.6122H294H380C397.121 67.6122 411 81.4913 411 98.6122V487.152C411 505.531 395.101 519.874 376.819 517.988L371.412 517.43C353.13 515.544 337.231 529.888 337.231 548.267V553C337.231 570.121 323.352 584 306.231 584H213.374C196.253 584 182.374 570.121 182.374 553V544.904C182.374 527.783 168.495 513.904 151.374 513.904H31C13.8792 513.904 0 500.025 0 482.904V31Z" fill="#1C1C1C"/>
</svg>
