<svg width="168" height="48" viewBox="0 0 168 48" fill="none" xmlns="http://www.w3.org/2000/svg">
<rect width="48" height="48" rx="6" fill="#0F0F0F"/>
<rect x="0.5" y="0.5" width="47" height="47" rx="5.5" stroke="#3B3B3B" stroke-opacity="0.24"/>
<path d="M24 19.5C23.11 19.5 22.24 19.7639 21.4999 20.2584C20.7599 20.7529 20.1831 21.4557 19.8425 22.2779C19.5019 23.1002 19.4128 24.005 19.5865 24.8779C19.7601 25.7508 20.1887 26.5526 20.818 27.182C21.4474 27.8113 22.2492 28.2399 23.1221 28.4135C23.995 28.5872 24.8998 28.4981 25.7221 28.1575C26.5443 27.8169 27.2471 27.2401 27.7416 26.5001C28.2361 25.76 28.5 24.89 28.5 24C28.4988 22.8069 28.0243 21.663 27.1806 20.8194C26.337 19.9757 25.1931 19.5012 24 19.5ZM24 27C23.4067 27 22.8266 26.8241 22.3333 26.4944C21.8399 26.1648 21.4554 25.6962 21.2284 25.1481C21.0013 24.5999 20.9419 23.9967 21.0576 23.4147C21.1734 22.8328 21.4591 22.2982 21.8787 21.8787C22.2982 21.4591 22.8328 21.1734 23.4147 21.0576C23.9967 20.9419 24.5999 21.0013 25.1481 21.2284C25.6962 21.4554 26.1648 21.8399 26.4944 22.3333C26.8241 22.8266 27 23.4067 27 24C27 24.7956 26.6839 25.5587 26.1213 26.1213C25.5587 26.6839 24.7956 27 24 27ZM28.5 14.25H19.5C18.1081 14.2515 16.7736 14.8051 15.7893 15.7893C14.8051 16.7736 14.2515 18.1081 14.25 19.5V28.5C14.2515 29.8919 14.8051 31.2264 15.7893 32.2107C16.7736 33.1949 18.1081 33.7485 19.5 33.75H28.5C29.8919 33.7485 31.2264 33.1949 32.2107 32.2107C33.1949 31.2264 33.7485 29.8919 33.75 28.5V19.5C33.7485 18.1081 33.1949 16.7736 32.2107 15.7893C31.2264 14.8051 29.8919 14.2515 28.5 14.25ZM32.25 28.5C32.25 29.4946 31.8549 30.4484 31.1516 31.1516C30.4484 31.8549 29.4946 32.25 28.5 32.25H19.5C18.5054 32.25 17.5516 31.8549 16.8483 31.1516C16.1451 30.4484 15.75 29.4946 15.75 28.5V19.5C15.75 18.5054 16.1451 17.5516 16.8483 16.8483C17.5516 16.1451 18.5054 15.75 19.5 15.75H28.5C29.4946 15.75 30.4484 16.1451 31.1516 16.8483C31.8549 17.5516 32.25 18.5054 32.25 19.5V28.5ZM30 19.125C30 19.3475 29.934 19.565 29.8104 19.75C29.6868 19.935 29.5111 20.0792 29.3055 20.1644C29.1 20.2495 28.8738 20.2718 28.6555 20.2284C28.4373 20.185 28.2368 20.0778 28.0795 19.9205C27.9222 19.7632 27.815 19.5627 27.7716 19.3445C27.7282 19.1262 27.7505 18.9 27.8356 18.6945C27.9208 18.4889 28.065 18.3132 28.25 18.1896C28.435 18.066 28.6525 18 28.875 18C29.1734 18 29.4595 18.1185 29.6705 18.3295C29.8815 18.5405 30 18.8266 30 19.125Z" fill="white"/>
<rect x="60" width="48" height="48" rx="6" fill="#0F0F0F"/>
<rect x="60.5" y="0.5" width="47" height="47" rx="5.5" stroke="#3B3B3B" stroke-opacity="0.24"/>
<path d="M92.133 31.8478L86.2643 22.6247L92.0552 16.2544C92.1862 16.1067 92.2537 15.9134 92.2431 15.7164C92.2325 15.5193 92.1446 15.3343 91.9986 15.2016C91.8525 15.0689 91.66 14.9991 91.4628 15.0073C91.2657 15.0155 91.0797 15.1012 90.9452 15.2456L85.4289 21.3131L81.633 15.3478C81.5653 15.2413 81.4718 15.1535 81.3612 15.0927C81.2506 15.0319 81.1264 15 81.0002 15H76.5002C76.3657 14.9999 76.2337 15.036 76.118 15.1045C76.0022 15.173 75.907 15.2713 75.8423 15.3892C75.7776 15.5071 75.7458 15.6402 75.7502 15.7746C75.7546 15.909 75.7951 16.0397 75.8674 16.1531L81.7361 25.3753L75.9452 31.7503C75.8776 31.823 75.825 31.9083 75.7906 32.0014C75.7562 32.0945 75.7407 32.1935 75.7448 32.2927C75.7489 32.3918 75.7727 32.4892 75.8148 32.5791C75.8568 32.669 75.9163 32.7496 75.9897 32.8164C76.0632 32.8831 76.1491 32.9346 76.2426 32.9679C76.3361 33.0012 76.4353 33.0156 76.5344 33.0103C76.6335 33.0049 76.7306 32.98 76.82 32.9369C76.9094 32.8937 76.9893 32.8333 77.0552 32.7591L82.5714 26.6916L86.3674 32.6569C86.4356 32.7625 86.5293 32.8494 86.6399 32.9093C86.7505 32.9693 86.8744 33.0005 87.0002 33H91.5002C91.6345 33 91.7664 32.9638 91.882 32.8954C91.9976 32.827 92.0927 32.7288 92.1573 32.611C92.222 32.4933 92.2539 32.3604 92.2496 32.2261C92.2453 32.0918 92.205 31.9612 92.133 31.8478ZM87.4118 31.5L77.8661 16.5H80.5849L90.1343 31.5H87.4118Z" fill="white"/>
<rect x="120" width="48" height="48" rx="6" fill="#0F0F0F"/>
<rect x="120.5" y="0.5" width="47" height="47" rx="5.5" stroke="#3B3B3B" stroke-opacity="0.24"/>
<path d="M153.968 18.5175C153.88 18.1719 153.711 17.8522 153.475 17.5849C153.238 17.3176 152.942 17.1102 152.61 16.98C149.396 15.7388 144.281 15.75 144 15.75C143.719 15.75 138.604 15.7388 135.39 16.98C135.058 17.1102 134.762 17.3176 134.525 17.5849C134.289 17.8522 134.12 18.1719 134.032 18.5175C133.789 19.4531 133.5 21.1631 133.5 24C133.5 26.8369 133.789 28.5469 134.032 29.4825C134.12 29.8283 134.289 30.1481 134.525 30.4156C134.761 30.6831 135.058 30.8906 135.39 31.0209C138.469 32.2088 143.287 32.25 143.938 32.25H144.062C144.713 32.25 149.534 32.2088 152.61 31.0209C152.942 30.8906 153.239 30.6831 153.475 30.4156C153.711 30.1481 153.88 29.8283 153.968 29.4825C154.211 28.545 154.5 26.8369 154.5 24C154.5 21.1631 154.211 19.4531 153.968 18.5175ZM147.055 24.6113L143.305 27.2363C143.193 27.3148 143.062 27.3612 142.925 27.3703C142.788 27.3794 142.652 27.351 142.53 27.288C142.408 27.225 142.306 27.1299 142.235 27.013C142.164 26.8962 142.126 26.762 142.125 26.625V21.375C142.125 21.2378 142.163 21.1032 142.234 20.986C142.305 20.8687 142.407 20.7732 142.529 20.7099C142.651 20.6465 142.787 20.6178 142.924 20.6268C143.061 20.6358 143.193 20.6822 143.305 20.7609L147.055 23.3859C147.154 23.4551 147.234 23.547 147.29 23.6539C147.346 23.7608 147.375 23.8795 147.375 24C147.375 24.1205 147.346 24.2392 147.29 24.3461C147.234 24.453 147.154 24.5449 147.055 24.6141V24.6113Z" fill="white"/>
</svg>
