<svg width="17" height="9" viewBox="0 0 17 9" fill="none" xmlns="http://www.w3.org/2000/svg">
<path d="M0.219933 0.219761C0.289589 0.150029 0.372307 0.0947094 0.463356 0.0569658C0.554403 0.0192232 0.651998 -0.000203133 0.750559 -0.000203133C0.84912 -0.000203133 0.946717 0.0192232 1.03777 0.0569658C1.12881 0.0947094 1.21153 0.150029 1.28118 0.219761L8.25056 7.19007L15.2199 0.219761C15.3607 0.079031 15.5515 -3.14713e-05 15.7506 -3.14713e-05C15.9496 -3.14713e-05 16.1405 0.079031 16.2812 0.219761C16.4219 0.360492 16.501 0.551364 16.501 0.750386C16.501 0.949409 16.4219 1.14028 16.2812 1.28101L8.78119 8.78101C8.71153 8.85074 8.62881 8.90606 8.53776 8.94381C8.44672 8.98155 8.34912 9.00098 8.25056 9.00098C8.152 9.00098 8.0544 8.98155 7.96335 8.94381C7.87231 8.90606 7.78959 8.85074 7.71993 8.78101L0.219933 1.28101C0.150202 1.21136 0.0948811 1.12864 0.0571384 1.03759C0.0193958 0.946543 -3.05176e-05 0.848948 -3.05176e-05 0.750386C-3.05176e-05 0.651825 0.0193958 0.55423 0.0571384 0.463181C0.0948811 0.372132 0.150202 0.289416 0.219933 0.219761Z" fill="white"/>
</svg>
