<svg width="8" height="10" viewBox="0 0 8 10" fill="none" xmlns="http://www.w3.org/2000/svg">
<path d="M3.68471 9.89034C4.75765 9.89034 5.70353 9.65151 6.33882 9.08956C6.91765 8.56976 7.29882 7.78302 7.29882 6.70127V0.210732H5.09647V0.983415H5.06823C4.6447 0.379317 3.9953 0 3.0353 0C1.24235 0 0 1.48917 0 3.59649C0 5.80215 1.51059 7.01034 3.13412 7.01034C4.00941 7.01034 4.56 6.65912 4.98353 6.18146H5.04V6.89795C5.04 7.76898 4.63059 8.27473 3.65647 8.27473C2.89412 8.27473 2.51294 7.95161 2.38588 7.57229H0.155294C0.381176 9.07551 1.69412 9.89034 3.68471 9.89034ZM3.67059 5.31044C2.80941 5.31044 2.24471 4.608 2.24471 3.52624C2.24471 2.43044 2.80941 1.728 3.67059 1.728C4.63059 1.728 5.13882 2.54283 5.13882 3.5122C5.13882 4.52371 4.67294 5.31044 3.67059 5.31044Z" fill="white"/>
</svg>
