<svg width="8" height="10" viewBox="0 0 8 10" fill="none" xmlns="http://www.w3.org/2000/svg">
<path d="M0 9.77795H2.30117V6.65912H2.32941C2.78118 7.26322 3.4447 7.62849 4.37647 7.62849C6.26823 7.62849 7.52471 6.13932 7.52471 3.80722C7.52471 1.64371 6.35294 0 4.43294 0C3.4447 0 2.73882 0.435512 2.2447 1.08176H2.20235V0.210732H0V9.77795ZM3.78353 5.85834C2.79529 5.85834 2.23059 5.05756 2.23059 3.89151C2.23059 2.72546 2.73882 1.84039 3.74117 1.84039C4.72941 1.84039 5.19529 2.65522 5.19529 3.89151C5.19529 5.11376 4.65882 5.85834 3.78353 5.85834Z" fill="white"/>
</svg>
