<svg width="12" height="8" viewBox="0 0 12 8" fill="none" xmlns="http://www.w3.org/2000/svg">
<path d="M0 7.40371H2.30118V3.37171C2.30118 2.51473 2.72471 1.91063 3.44471 1.91063C4.13647 1.91063 4.46118 2.36019 4.46118 3.13288V7.40371H6.76235V3.37171C6.76235 2.51473 7.17177 1.91063 7.90588 1.91063C8.59765 1.91063 8.92235 2.36019 8.92235 3.13288V7.40371H11.2235V2.72546C11.2235 1.10985 10.4047 0 8.76706 0C7.8353 0 7.05882 0.393366 6.49411 1.26439H6.46589C6.09883 0.491707 5.37882 0 4.43294 0C3.38823 0 2.69647 0.491707 2.2447 1.23629H2.20235V0.210732H0V7.40371Z" fill="white"/>
</svg>
