<svg width="7" height="8" viewBox="0 0 7 8" fill="none" xmlns="http://www.w3.org/2000/svg">
<path d="M3.51529 7.62849C5.40706 7.62849 6.8047 6.81366 6.8047 5.24019C6.8047 3.3998 5.30823 3.07668 4.03765 2.86595C3.12 2.69737 2.30118 2.62712 2.30118 2.12137C2.30118 1.67181 2.73882 1.46107 3.30353 1.46107C3.93882 1.46107 4.37647 1.65776 4.46118 2.304H6.57883C6.46589 0.885074 5.36471 0 3.31765 0C1.60941 0 0.197646 0.786732 0.197646 2.304C0.197646 3.98985 1.53882 4.32702 2.79529 4.53776C3.75529 4.70634 4.63058 4.77659 4.63058 5.42283C4.63058 5.88644 4.19294 6.13932 3.50117 6.13932C2.73882 6.13932 2.25882 5.7881 2.17412 5.07161H0C0.0705882 6.65912 1.39765 7.62849 3.51529 7.62849Z" fill="white"/>
</svg>
